<svg width="14" height="8" viewBox="0 0 14 8" fill="none" xmlns="http://www.w3.org/2000/svg">
<path d="M6.97546 7.75511C6.81173 7.75607 6.64943 7.72453 6.49785 7.66233C6.34628 7.60012 6.20841 7.50847 6.09217 7.39261L1.11587 2.39261C0.999876 2.27607 0.907864 2.1377 0.845087 1.98543C0.782311 1.83315 0.75 1.66994 0.75 1.50511C0.75 1.34029 0.782311 1.17708 0.845087 1.0248C0.907864 0.872524 0.999876 0.734162 1.11587 0.617614C1.23187 0.501066 1.36957 0.408615 1.52113 0.345539C1.67269 0.282464 1.83512 0.25 1.99916 0.25C2.16321 0.25 2.32564 0.282464 2.4772 0.345539C2.62875 0.408615 2.76646 0.501066 2.88246 0.617614L6.97546 4.75511L11.0809 0.780114C11.1953 0.652252 11.3348 0.549491 11.4906 0.478258C11.6464 0.407026 11.8151 0.368854 11.9862 0.36613C12.1573 0.363406 12.3272 0.396187 12.4851 0.462426C12.6431 0.528665 12.7857 0.626936 12.9041 0.751091C13.0225 0.875247 13.1142 1.02262 13.1733 1.18398C13.2325 1.34535 13.2579 1.51725 13.2479 1.68892C13.2379 1.86059 13.1928 2.02834 13.1153 2.18169C13.0378 2.33503 12.9297 2.47067 12.7977 2.58011L7.82143 7.40511C7.59392 7.62551 7.29146 7.75064 6.97546 7.75511Z" fill="white"/>
</svg>
