<svg width="16" height="17" viewBox="0 0 16 17" fill="none" xmlns="http://www.w3.org/2000/svg">
<path fill-rule="evenodd" clip-rule="evenodd" d="M8.00016 1.83337C4.32016 1.83337 1.3335 4.82004 1.3335 8.50004C1.3335 12.18 4.32016 15.1667 8.00016 15.1667C11.6802 15.1667 14.6668 12.18 14.6668 8.50004C14.6668 4.82004 11.6802 1.83337 8.00016 1.83337ZM6.1935 11.36L3.80016 8.96671C3.54016 8.70671 3.54016 8.28671 3.80016 8.02671C4.06016 7.76671 4.48016 7.76671 4.74016 8.02671L6.66683 9.94671L11.2535 5.36004C11.5135 5.10004 11.9335 5.10004 12.1935 5.36004C12.4535 5.62004 12.4535 6.04004 12.1935 6.30004L7.1335 11.36C6.88016 11.62 6.4535 11.62 6.1935 11.36Z" fill="white"/>
</svg>
