<svg width="20" height="20" viewBox="0 0 20 20" fill="none" xmlns="http://www.w3.org/2000/svg">
<path fill-rule="evenodd" clip-rule="evenodd" d="M0 2C0 0.895431 0.895431 0 2 0H18C19.1046 0 20 0.895431 20 2V18C20 19.1046 19.1046 20 18 20H2C0.895431 20 0 19.1046 0 18V2Z" fill="#FCB115"/>
<path d="M4.38808 11.1746C4.17226 10.9523 4.17327 10.5984 4.39034 10.3773C4.61514 10.1484 4.98445 10.1497 5.2076 10.3803L7.85489 13.1153L14.7917 6.155C15.0162 5.92975 15.3814 5.93111 15.6042 6.15803C15.8236 6.38139 15.8223 6.73961 15.6015 6.96149L7.85489 14.7458L4.38808 11.1746Z" fill="#111317"/>
</svg>
