<svg width="78" height="24" viewBox="0 0 78 24" fill="none" xmlns="http://www.w3.org/2000/svg">
<path d="M24.352 4.27819H14.6119V24H9.74011V4.27819H0V0H24.352V4.27819Z" fill="white"/>
<path d="M38.5773 15.3884H32.5531V24H27.6193V0H39.5986C42.6763 0.025342 45.0144 0.695734 46.613 2.01121C48.2116 3.32669 49.0098 5.22045 49.0075 7.69245C49.0443 9.24184 48.5888 10.7629 47.7068 12.0363C46.7257 13.3217 45.3708 14.2707 43.8287 14.7525L49.5389 24H43.8287L38.5773 15.3884ZM32.5531 11.359H39.847C41.1374 11.3382 42.1484 10.9719 42.8764 10.2669C43.2323 9.93884 43.5164 9.5403 43.7106 9.09655C43.9048 8.6528 44.0049 8.1735 44.0046 7.68899C43.9805 6.48985 43.6044 5.57063 42.8764 4.92441C42.1484 4.27819 41.1512 4.00517 39.847 4.00517H32.5531V11.359Z" fill="white"/>
<path d="M64.9856 0C68.9535 0.0437725 72.0426 1.13809 74.2531 3.28294C76.4635 5.42779 77.5791 8.3329 77.5998 11.9983C77.5745 15.6475 76.4589 18.5423 74.2531 20.6825C72.0472 22.8228 68.9581 23.9286 64.9856 24H53.6377V0H64.9856ZM64.9856 19.9775C66.8808 20.0492 68.7362 19.4208 70.199 18.2117C71.7286 17.0137 72.5279 14.9402 72.5969 11.9914C72.5256 9.05168 71.7263 6.97825 70.199 5.77105C68.7362 4.56195 66.8808 3.93349 64.9856 4.00517H58.5716V19.9603L64.9856 19.9775Z" fill="white"/>
</svg>
